<?xml version="1.0" encoding="utf-8"?>
<!-- Generator: Adobe Illustrator 21.1.0, SVG Export Plug-In . SVG Version: 6.00 Build 0)  -->
<svg version="1.1" id="Layer_1" xmlns="http://www.w3.org/2000/svg" xmlns:xlink="http://www.w3.org/1999/xlink" x="0px" y="0px"
	 viewBox="0 0 43 44" enable-background="new 0 0 43 44" xml:space="preserve">
<path fill="#FFFFFF" d="M39.5,23.2c-1.4,0-2.6,0.9-3.1,2.1l-5.5-0.9c0-0.2,0-0.3,0-0.5c0-5.1-4.1-9.3-9.3-9.3c-1.5,0-2.9,0.4-4.1,1
	L12.8,7c0.9-0.7,1.4-1.8,1.4-3c0-2.2-1.8-4-4-4s-4,1.8-4,4s1.8,4,4,4c0.5,0,1-0.1,1.4-0.3l4.7,8.7c-2,1.4-3.5,3.6-3.9,6.1l-5.8-0.4
	c-0.2-1.7-1.6-2.9-3.3-2.9c-1.9,0-3.4,1.5-3.4,3.4s1.5,3.4,3.4,3.4c1.5,0,2.8-1,3.2-2.5l5.8,0.4c0,0.1,0,0.1,0,0.2
	c0,3.2,1.6,6,4,7.6l-4.6,4.8c-0.6-0.4-1.4-0.7-2.3-0.7c-2.2,0-4,1.8-4,4s1.8,4,4,4s4-1.8,4-4c0-0.9-0.3-1.7-0.8-2.3l4.8-5
	c1.2,0.6,2.6,0.9,4.1,0.9c4.5,0,8.2-3.2,9.1-7.5l5.5,0.8c0,1.8,1.5,3.3,3.3,3.3c1.9,0,3.4-1.5,3.4-3.4S41.4,23.2,39.5,23.2z M8.2,4
	c0-1.1,0.9-2,2-2s2,0.9,2,2s-0.9,2-2,2S8.2,5.1,8.2,4z M3.4,24.6c-1.1,0-2-0.9-2-2s0.9-2,2-2s2,0.9,2,2S4.5,24.6,3.4,24.6z
	 M9.5,41.7c-1.1,0-2-0.9-2-2s0.9-2,2-2s2,0.9,2,2S10.6,41.7,9.5,41.7z M21.6,30c-3.3,0-5.9-2.7-5.9-5.9c0-3.3,2.7-5.9,5.9-5.9
	s5.9,2.7,5.9,5.9C27.6,27.3,24.9,30,21.6,30z M39.5,28.6c-1.1,0-2-0.9-2-2s0.9-2,2-2s2,0.9,2,2S40.6,28.6,39.5,28.6z"/>
</svg>
