<svg xmlns="http://www.w3.org/2000/svg" xmlns:xlink="http://www.w3.org/1999/xlink" version="1.1" height="59" width="298.65511587755503" viewBox="0 0 298.65511587755503 59"><g id="SvgjsG1736" rel="mainfill" name="main_text" xmlns:name="mainText_mainfill" fill="#172327" transform="translate(69.16510466234507,-20.849998474121094)"><path d="M15.105 36.888000000000005 c5.565 0 9.328 3.498 9.328 9.646 l0 7.632 c0 6.042 -3.763 9.699 -9.328 9.699 l-1.802 0 c-3.604 0 -5.671 -1.59 -6.731 -3.922 l0 13.462 c0 0.53 -0.265 0.795 -0.795 0.795 l-1.802 0 c-0.53 0 -0.795 -0.265 -0.795 -0.795 l0 -35.51 c0 -0.53 0.265 -0.795 0.795 -0.795 l1.802 0 c0.53 0 0.795 0.265 0.795 0.795 l0 2.65 c1.06 -2.279 3.127 -3.657 6.731 -3.657 l1.802 0 z M21.041 54.484 l0 -8.056 c0 -4.293 -2.173 -6.36 -5.989 -6.36 l-2.438 0 c-3.869 0 -6.042 2.067 -6.042 6.36 l0 8.374 c0.106 3.869 2.279 5.883 6.042 5.883 l2.438 0 c3.816 0 5.989 -2.173 5.989 -6.201 z M40.650999999999996 36.888000000000005 c4.664 0 9.169 3.445 9.169 9.593 l0 3.604 c0 1.007 -0.636 1.643 -1.696 1.643 l-15.423 0 l0 2.968 c0 3.816 2.173 5.989 6.042 5.989 l1.908 0 c3.551 0 4.505 -1.325 6.042 -3.127 c0.318 -0.424 0.583 -0.53 1.113 -0.159 l1.007 0.742 c0.53 0.371 0.53 0.689 0.212 1.113 c-1.908 2.332 -3.763 4.611 -8.374 4.611 l-1.908 0 c-5.671 0 -9.54 -3.71 -9.54 -9.54 l0 -7.791 c0 -6.148 3.869 -9.646 9.54 -9.646 l1.908 0 z M46.375 48.813 l0 -2.385 c0 -4.293 -2.438 -6.36 -5.724 -6.36 l-1.908 0 c-3.869 0 -6.042 2.067 -6.042 6.36 l0 2.385 l13.674 0 z M75.419 63.123000000000005 c0.053 0.212 0.106 0.477 -0.159 0.477 l-2.491 0 c-0.583 0 -0.848 -0.53 -0.848 -1.272 l0 -2.915 c-1.537 2.544 -3.816 4.452 -7.473 4.452 l-2.226 0 c-4.823 0 -7.897 -2.756 -7.897 -8.003 c0 -5.3 3.021 -7.632 7.791 -7.632 l9.805 0 l0 -1.802 c0 -4.982 -1.272 -6.36 -5.83 -6.36 l-1.113 0 c-2.809 0 -4.717 0.477 -6.413 1.378 c-0.53 0.265 -1.06 0.318 -1.272 -0.159 l-0.689 -1.484 c-0.159 -0.371 -0.159 -0.636 0.371 -0.954 c2.173 -1.378 5.088 -1.961 8.003 -1.961 l1.113 0 c6.572 0 9.222 3.021 9.222 9.593 l0 15.847 c0 0.265 0.053 0.583 0.106 0.795 z M64.607 60.685 c3.975 0 6.254 -2.12 7.314 -5.088 l0 -4.452 l-9.699 0 c-2.862 0 -4.505 1.113 -4.505 4.717 c0 3.551 1.643 4.823 4.505 4.823 l2.385 0 z M91.531 40.28 l-4.293 0 l0 15.105 c0 3.657 0.954 5.088 4.293 5.194 c0.53 0 0.742 0.371 0.742 0.848 l-0.053 1.484 c0 0.477 -0.318 0.795 -0.901 0.795 c-5.618 -0.106 -7.473 -2.809 -7.473 -8.321 l0 -15.105 l-2.809 0 c-0.53 0 -0.795 -0.265 -0.795 -0.795 l0 -1.537 c0 -0.583 0.265 -0.848 0.795 -0.848 l2.809 0 l0 -3.18 c0 -0.53 0.265 -0.795 0.795 -0.795 l1.802 0 c0.53 0 0.795 0.265 0.795 0.795 l0 3.18 l4.24 0 c0.583 0 0.848 0.265 0.848 0.795 l0 1.59 c0 0.53 -0.265 0.795 -0.795 0.795 z M98.262 27.295 c0 -0.53 0.265 -0.795 0.795 -0.795 l1.643 0 c0.53 0 0.795 0.265 0.795 0.795 l0 1.855 c0 0.53 -0.265 0.795 -0.795 0.795 l-1.643 0 c-0.53 0 -0.795 -0.265 -0.795 -0.795 l0 -1.855 z M98.15599999999999 37.895 c0 -0.53 0.265 -0.795 0.795 -0.795 l1.802 0 c0.53 0 0.795 0.265 0.795 0.795 l0 24.91 c0 0.53 -0.265 0.795 -0.795 0.795 l-1.802 0 c-0.53 0 -0.795 -0.265 -0.795 -0.795 l0 -24.91 z M119.46199999999999 36.888000000000005 c5.618 0 9.381 3.498 9.381 9.646 l0 7.632 c0 6.042 -3.763 9.699 -9.381 9.699 l-2.385 0 c-5.671 0 -9.434 -3.657 -9.434 -9.699 l0 -7.632 c0 -6.148 3.763 -9.646 9.434 -9.646 l2.385 0 z M125.451 54.484 l0 -8.056 c0 -4.293 -2.173 -6.36 -5.989 -6.36 l-2.385 0 c-3.869 0 -6.042 2.067 -6.042 6.36 l0 8.056 c0 4.028 2.173 6.201 6.042 6.201 l2.385 0 c3.816 0 5.989 -2.173 5.989 -6.201 z M133.083 59.254000000000005 c0 -0.53 0.265 -0.795 0.795 -0.795 l3.392 0 c0.53 0 0.795 0.265 0.795 0.795 l0 3.551 c0 0.53 -0.265 0.795 -0.795 0.795 l-3.392 0 c-0.53 0 -0.795 -0.265 -0.795 -0.795 l0 -3.551 z M153.06400000000002 40.28 l-4.293 0 l0 15.105 c0 3.657 0.954 5.088 4.293 5.194 c0.53 0 0.742 0.371 0.742 0.848 l-0.053 1.484 c0 0.477 -0.318 0.795 -0.901 0.795 c-5.618 -0.106 -7.473 -2.809 -7.473 -8.321 l0 -15.105 l-2.809 0 c-0.53 0 -0.795 -0.265 -0.795 -0.795 l0 -1.537 c0 -0.583 0.265 -0.848 0.795 -0.848 l2.809 0 l0 -3.18 c0 -0.53 0.265 -0.795 0.795 -0.795 l1.802 0 c0.53 0 0.795 0.265 0.795 0.795 l0 3.18 l4.24 0 c0.583 0 0.848 0.265 0.848 0.795 l0 1.59 c0 0.53 -0.265 0.795 -0.795 0.795 z M169.812 36.888000000000005 c4.664 0 9.169 3.445 9.169 9.593 l0 3.604 c0 1.007 -0.636 1.643 -1.696 1.643 l-15.423 0 l0 2.968 c0 3.816 2.173 5.989 6.042 5.989 l1.908 0 c3.551 0 4.505 -1.325 6.042 -3.127 c0.318 -0.424 0.583 -0.53 1.113 -0.159 l1.007 0.742 c0.53 0.371 0.53 0.689 0.212 1.113 c-1.908 2.332 -3.763 4.611 -8.374 4.611 l-1.908 0 c-5.671 0 -9.54 -3.71 -9.54 -9.54 l0 -7.791 c0 -6.148 3.869 -9.646 9.54 -9.646 l1.908 0 z M175.536 48.813 l0 -2.385 c0 -4.293 -2.438 -6.36 -5.724 -6.36 l-1.908 0 c-3.869 0 -6.042 2.067 -6.042 6.36 l0 2.385 l13.674 0 z M201.50600000000003 45.315 c-0.477 0 -0.742 -0.265 -0.848 -0.795 c-0.583 -3.021 -2.544 -4.399 -5.406 -4.399 l-1.961 0 c-3.869 0 -6.042 2.067 -6.042 6.307 l0 8.268 c0 3.816 2.173 5.989 6.042 5.989 l1.908 0 c3.445 0 4.452 -1.378 5.989 -3.233 c0.371 -0.424 0.689 -0.424 1.166 -0.106 l1.166 0.848 c0.477 0.318 0.477 0.689 0.159 1.113 c-1.908 2.332 -3.604 4.558 -8.48 4.558 l-1.908 0 c-5.671 0 -9.54 -3.71 -9.54 -9.54 l0 -7.791 c0 -6.095 3.869 -9.593 9.54 -9.593 l1.961 0 c4.664 0 8.056 2.809 8.851 7.473 c0.053 0.583 -0.212 0.901 -0.742 0.901 l-1.855 0 z M221.222 36.888000000000005 c6.148 0 8.268 3.339 8.268 9.381 l0 16.536 c0 0.53 -0.265 0.795 -0.795 0.795 l-1.802 0 c-0.53 0 -0.795 -0.265 -0.795 -0.795 l0 -16.536 c0 -4.134 -1.06 -6.201 -5.247 -6.201 l-0.848 0 c-4.028 0 -6.36 2.385 -7.155 3.763 l0 18.974 c0 0.53 -0.265 0.795 -0.795 0.795 l-1.802 0 c-0.53 0 -0.795 -0.265 -0.795 -0.795 l0 -35.51 c0 -0.53 0.265 -0.795 0.795 -0.795 l1.802 0 c0.53 0 0.795 0.265 0.795 0.795 l0 13.78 c1.802 -2.703 4.611 -4.187 7.95 -4.187 l0.424 0 z "></path></g><defs id="SvgjsDefs1735"></defs><g id="SvgjsG1737" rel="mainfill" name="symbol" xmlns:name="symbol_mainfill" fill="#172327" transform="translate(-22.926000036377896,-14.159840894137147) scale(0.3057818717853008)"><g xmlns="http://www.w3.org/2000/svg" display="none"><path display="inline" d="M269.264,153.289c-5.965,0-11.048,3.728-13.08,8.975l-75.905-12.558c0.075-0.856,0.121-1.722,0.121-2.598   c0-3.376-0.58-6.615-1.634-9.632l22.228-10.542c2.206,2.708,5.565,4.44,9.33,4.44c6.645,0,12.032-5.387,12.032-12.032   c0-6.645-5.387-12.031-12.032-12.031c-6.645,0-12.031,5.387-12.031,12.031c0,0.833,0.085,1.645,0.246,2.43l-22.209,10.465   c-3.93-6.627-10.403-11.565-18.078-13.469l8.023-49.263c7.881-0.07,14.25-6.475,14.25-14.372c0-7.941-6.438-14.378-14.378-14.378   s-14.378,6.438-14.378,14.378c0,6.023,3.708,11.174,8.962,13.314l-8.091,49.495c-0.478-0.023-0.958-0.037-1.44-0.037   c-7.324,0-14.012,2.702-19.138,7.156l-9.195-9.188c2.968-3.683,4.753-8.359,4.753-13.458c0-11.859-9.613-21.472-21.472-21.472   s-21.472,9.613-21.472,21.472s9.613,21.472,21.472,21.472c4.698,0,9.03-1.526,12.565-4.086l9.443,9.379   c-3.855,4.949-6.158,11.166-6.158,17.925c0,1.397,0.104,2.77,0.294,4.115l-43.018,10.394c-2.144-4.534-6.746-7.677-12.094-7.677   c-7.393,0-13.385,5.993-13.385,13.385s5.993,13.385,13.385,13.385s13.385-5.993,13.385-13.385c0-0.181-0.02-0.356-0.027-0.535   l43.193-9.751c2.892,7.997,9.177,14.366,17.117,17.377l-13.864,54.83c-4.582,0.313-8.205,4.118-8.205,8.78   c0,4.866,3.944,8.811,8.81,8.811c4.866,0,8.811-3.944,8.811-8.811c0-3.096-1.6-5.813-4.015-7.385l13.803-54.768   c1.629,0.282,3.301,0.437,5.011,0.437c5.033,0,9.769-1.274,13.903-3.516l35.605,48.826c-1.509,2.002-2.414,4.484-2.414,7.185   c0,6.607,5.356,11.963,11.963,11.963s11.963-5.356,11.963-11.963s-5.356-11.963-11.963-11.963c-1.812,0-3.523,0.415-5.062,1.136   l-35.297-48.442c4.415-3.685,7.72-8.65,9.356-14.324l76.007,12.711c0.315,7.472,6.456,13.437,14.005,13.437   c7.751,0,14.035-6.284,14.035-14.035C283.299,159.573,277.015,153.289,269.264,153.289z"></path></g><g xmlns="http://www.w3.org/2000/svg" display="none"><path display="inline" d="M269.263,153.29c-5.965,0-11.047,3.727-13.08,8.975l-75.905-12.558c0.075-0.856,0.121-1.722,0.121-2.598   c0-3.376-0.58-6.615-1.634-9.631l22.227-10.542c2.206,2.709,5.565,4.441,9.331,4.441c6.645,0,12.032-5.387,12.032-12.032   c0-6.645-5.387-12.031-12.032-12.031c-6.645,0-12.031,5.387-12.031,12.031c0,0.833,0.085,1.645,0.246,2.43l-22.208,10.465   c-3.93-6.627-10.403-11.565-18.078-13.47l8.023-49.262c7.881-0.07,14.25-6.475,14.25-14.373c0-7.94-6.438-14.378-14.379-14.378   c-7.94,0-14.378,6.438-14.378,14.378c0,6.023,3.708,11.175,8.962,13.315l-8.091,49.494c-0.478-0.023-0.958-0.037-1.441-0.037   c-7.323,0-14.012,2.703-19.138,7.156l-9.195-9.188c2.969-3.683,4.754-8.36,4.754-13.458c0-11.858-9.614-21.473-21.473-21.473   c-11.858,0-21.472,9.614-21.472,21.473s9.614,21.473,21.472,21.473c4.698,0,9.031-1.526,12.566-4.086l9.443,9.379   c-3.855,4.949-6.158,11.167-6.158,17.925c0,1.397,0.104,2.77,0.294,4.115l-43.018,10.394c-2.144-4.534-6.746-7.678-12.094-7.678   c-7.392,0-13.385,5.993-13.385,13.385c0,7.393,5.993,13.386,13.385,13.386c7.393,0,13.386-5.993,13.386-13.386   c0-0.181-0.02-0.356-0.027-0.535l43.193-9.751c2.892,7.998,9.177,14.367,17.117,17.377l-13.864,54.83   c-4.582,0.313-8.205,4.118-8.205,8.78c0,4.866,3.944,8.811,8.81,8.811c4.866,0,8.811-3.944,8.811-8.811   c0-3.096-1.6-5.813-4.015-7.385l13.802-54.768c1.629,0.282,3.301,0.437,5.011,0.437c5.034,0,9.77-1.274,13.904-3.516l35.605,48.826   c-1.509,2.002-2.414,4.485-2.414,7.185c0,6.607,5.355,11.963,11.962,11.963c6.607,0,11.963-5.356,11.963-11.963   c0-6.606-5.356-11.962-11.963-11.962c-1.812,0-3.523,0.415-5.062,1.135l-35.297-48.441c4.416-3.685,7.72-8.65,9.356-14.324   l76.007,12.711c0.315,7.472,6.455,13.438,14.005,13.438c7.752,0,14.036-6.284,14.036-14.036   C283.299,159.574,277.015,153.29,269.263,153.29z M210.323,111.242c4.476,0,8.104,3.628,8.104,8.104s-3.628,8.104-8.104,8.104   c-4.476,0-8.104-3.628-8.104-8.104S205.848,111.242,210.323,111.242z M156.461,55.136c0-5.349,4.336-9.685,9.685-9.685   s9.685,4.336,9.685,9.685s-4.336,9.685-9.685,9.685S156.461,60.484,156.461,55.136z M67.18,176.341   c-4.979,0-9.015-4.036-9.015-9.016c0-4.979,4.036-9.016,9.015-9.016c4.98,0,9.016,4.036,9.016,9.016   C76.196,172.305,72.16,176.341,67.18,176.341z M127.589,243.961c-3.277,0-5.934-2.657-5.934-5.935c0-3.277,2.657-5.934,5.934-5.934   c3.278,0,5.935,2.657,5.935,5.934C133.523,241.304,130.867,243.961,127.589,243.961z M218.313,228.805   c0,4.451-3.607,8.058-8.058,8.058c-4.45,0-8.057-3.607-8.057-8.058c0-4.45,3.607-8.057,8.057-8.057   C214.705,220.748,218.313,224.355,218.313,228.805z M91.684,102.418c0-7.988,6.475-14.463,14.462-14.463   s14.462,6.475,14.462,14.463c0,3.903-1.553,7.438-4.066,10.04l-0.356,0.356c-2.602,2.513-6.137,4.066-10.04,4.066   C98.158,116.881,91.684,110.406,91.684,102.418z M151.197,166.778c-10.862,0-19.667-8.805-19.667-19.669   c0-10.863,8.805-19.668,19.667-19.668c10.864,0,19.669,8.806,19.669,19.668C170.867,157.973,162.062,166.778,151.197,166.778z    M269.263,176.779c-5.221,0-9.453-4.232-9.453-9.454s4.232-9.453,9.453-9.453c5.222,0,9.454,4.232,9.454,9.453   S274.485,176.779,269.263,176.779z"></path></g><g xmlns="http://www.w3.org/2000/svg" display="none"><g display="inline"><path d="M80.209,177.202c-1.741-7.062-2.682-14.438-2.682-22.037c0-39.963,25.549-73.943,61.198-86.542    c-1.184-3.369-1.861-6.976-1.861-10.75c0-0.412,0.046-0.813,0.062-1.221C95.519,70.258,65.61,109.208,65.61,155.166    c0,9.235,1.224,18.182,3.488,26.703C72.424,179.666,76.177,178.06,80.209,177.202z"></path><path d="M224.37,228.604c-15.338,11.52-34.4,18.348-55.059,18.348c-21.099,0-40.521-7.137-56.021-19.104    c-2.365,3.28-5.315,6.102-8.717,8.302c17.745,14.203,40.241,22.717,64.738,22.717c24.191,0,46.43-8.307,64.07-22.193    C229.893,234.565,226.84,231.828,224.37,228.604z"></path><path d="M261.095,155.165c0,7.731-0.968,15.234-2.767,22.408c4.001,1.047,7.694,2.829,10.936,5.21    c2.426-8.797,3.748-18.05,3.748-27.617c0-45.966-29.919-84.922-71.336-98.521c0.016,0.411,0.063,0.813,0.063,1.228    c0,3.771-0.677,7.376-1.859,10.743C235.537,81.211,261.095,115.195,261.095,155.165z"></path><circle cx="169.19" cy="58.19" r="29.463"></circle><circle cx="250.11" cy="208.92" r="29.463"></circle><circle cx="86.984" cy="208.92" r="29.463"></circle></g></g><g xmlns="http://www.w3.org/2000/svg" display="none"><g display="inline"><path d="M169.302,87.023c16.098,0,29.146-13.052,29.146-29.148c0-16.1-13.049-29.148-29.146-29.148    c-16.1,0-29.148,13.049-29.148,29.148C140.153,73.972,153.202,87.023,169.302,87.023z M169.302,37.734    c11.123,0,20.14,9.017,20.14,20.141c0,11.123-9.017,20.14-20.14,20.14c-11.125,0-20.141-9.017-20.141-20.14    C149.161,46.751,158.177,37.734,169.302,37.734z"></path><path d="M116.132,208.92c0-16.099-13.049-29.147-29.147-29.147c-16.1,0-29.148,13.049-29.148,29.147    c0,16.098,13.049,29.148,29.148,29.148C103.083,238.068,116.132,225.018,116.132,208.92z M86.984,229.061    c-11.125,0-20.141-9.018-20.141-20.141c0-11.124,9.016-20.141,20.141-20.141c11.124,0,20.14,9.017,20.14,20.141    C107.124,220.043,98.108,229.061,86.984,229.061z"></path><path d="M250.109,179.772c-16.098,0-29.146,13.049-29.146,29.147c0,16.098,13.049,29.148,29.146,29.148    c16.1,0,29.148-13.051,29.148-29.148C279.258,192.821,266.209,179.772,250.109,179.772z M250.109,229.061    c-11.123,0-20.14-9.018-20.14-20.141c0-11.124,9.017-20.141,20.14-20.141c11.125,0,20.141,9.017,20.141,20.141    C270.25,220.043,261.234,229.061,250.109,229.061z"></path><path d="M80.209,177.202c-1.741-7.062-2.682-14.438-2.682-22.037c0-39.963,25.549-73.943,61.198-86.542    c-1.184-3.369-1.861-6.976-1.861-10.75c0-0.412,0.046-0.813,0.062-1.221C95.519,70.258,65.61,109.208,65.61,155.166    c0,9.235,1.224,18.182,3.488,26.703C72.424,179.666,76.177,178.06,80.209,177.202z"></path><path d="M224.37,228.604c-15.338,11.52-34.4,18.348-55.059,18.348c-21.099,0-40.521-7.137-56.021-19.104    c-2.365,3.28-5.315,6.102-8.717,8.302c17.745,14.203,40.241,22.717,64.738,22.717c24.191,0,46.43-8.307,64.07-22.193    C229.893,234.565,226.84,231.828,224.37,228.604z"></path><path d="M261.095,155.165c0,7.731-0.968,15.234-2.767,22.408c4.001,1.047,7.694,2.829,10.936,5.21    c2.426-8.797,3.748-18.05,3.748-27.617c0-45.966-29.919-84.922-71.336-98.521c0.016,0.411,0.063,0.813,0.063,1.228    c0,3.771-0.677,7.376-1.859,10.743C235.537,81.211,261.095,115.195,261.095,155.165z"></path></g></g><g xmlns="http://www.w3.org/2000/svg" display="none"><path display="inline" d="M263.613,34.835c-22.933,0-41.521,18.589-41.521,41.521c0,3.469,0.432,6.837,1.233,10.059l-115.64,49.178   c-7.205-11.666-20.103-19.443-34.821-19.443c-22.591,0-40.904,18.313-40.904,40.905c0,22.591,18.313,40.905,40.904,40.905   c14.977,0,28.067-8.054,35.194-20.063l84.677,33.162c-0.429,2.188-0.66,4.449-0.66,6.763c0,19.294,15.643,34.937,34.937,34.937   c19.295,0,34.938-15.643,34.938-34.937c0-19.295-15.643-34.937-34.938-34.937c-12.562,0-23.571,6.634-29.728,16.586l-84.501-33.503   c0.638-2.871,0.986-5.851,0.986-8.914c0-3.44-0.43-6.778-1.229-9.97l115.779-48.861c7.324,11.796,20.389,19.655,35.295,19.655   c22.932,0,41.521-18.589,41.521-41.521C305.134,53.424,286.545,34.835,263.613,34.835z"></path></g><g xmlns="http://www.w3.org/2000/svg" display="none"><path display="inline" d="M263.613,34.835c-22.931,0-41.521,18.591-41.521,41.521c0,3.469,0.432,6.836,1.233,10.058l-115.64,49.178   c-7.205-11.666-20.103-19.443-34.822-19.443c-22.589,0-40.903,18.315-40.903,40.905c0,22.594,18.314,40.904,40.903,40.904   c14.978,0,28.069-8.053,35.196-20.062l84.676,33.161c-0.429,2.189-0.66,4.449-0.66,6.764c0,19.297,15.643,34.937,34.937,34.937   c19.296,0,34.938-15.64,34.938-34.937c0-19.294-15.642-34.937-34.938-34.937c-12.562,0-23.571,6.634-29.728,16.586l-84.501-33.502   c0.638-2.87,0.985-5.851,0.985-8.914c0-3.44-0.43-6.779-1.229-9.971l115.779-48.861c7.324,11.796,20.39,19.654,35.295,19.654   c22.932,0,41.521-18.586,41.521-41.521C305.134,53.426,286.545,34.835,263.613,34.835z M227.012,192.24   c14.129,0,25.583,11.454,25.583,25.582c0,14.128-11.454,25.583-25.583,25.583c-14.128,0-25.581-11.456-25.581-25.583   C201.431,203.694,212.884,192.24,227.012,192.24z M72.863,187.008c-16.541,0-29.95-13.414-29.95-29.954   c0-16.54,13.409-29.952,29.95-29.952c16.544,0,29.953,13.412,29.953,29.952C102.816,173.594,89.407,187.008,72.863,187.008z    M263.613,106.761c-16.792,0-30.403-13.614-30.403-30.404c0-16.79,13.611-30.403,30.403-30.403   c16.791,0,30.403,13.613,30.403,30.403C294.017,93.146,280.404,106.761,263.613,106.761z"></path></g><g xmlns="http://www.w3.org/2000/svg" display="none"><path display="inline" d="M258.332,194.79c-13.027,0-24.519,6.561-31.362,16.555l-111.838-53.107   c1.049-3.478,1.619-7.163,1.619-10.982c0-4.105-0.659-8.055-1.864-11.759l112.716-58.359c6.906,9.491,18.094,15.665,30.73,15.665   c20.979,0,37.987-17.008,37.987-37.988s-17.008-37.988-37.987-37.988c-20.98,0-37.988,17.008-37.988,37.988   c0,4.165,0.68,8.169,1.918,11.919l-112.847,58.092c-6.912-9.431-18.065-15.558-30.653-15.558c-20.98,0-37.988,17.008-37.988,37.988   s17.008,37.988,37.988,37.988c12.929,0,24.342-6.464,31.203-16.332l111.924,53.139c-1,3.403-1.546,7.001-1.546,10.728   c0,20.98,17.008,37.989,37.988,37.989c20.979,0,37.987-17.009,37.987-37.989C296.319,211.799,279.312,194.79,258.332,194.79z"></path></g><g xmlns="http://www.w3.org/2000/svg" display="none"><path display="inline" d="M258.238,194.737c-13.013,0-24.492,6.553-31.329,16.536l-111.721-53.05   c1.048-3.474,1.617-7.156,1.617-10.971c0-4.101-0.659-8.047-1.862-11.746L227.54,77.208c6.899,9.48,18.076,15.647,30.698,15.647   c20.959,0,37.947-16.988,37.947-37.945c0-20.959-16.988-37.949-37.947-37.949s-37.949,16.99-37.949,37.949   c0,4.16,0.679,8.16,1.917,11.905l-112.727,58.031c-6.905-9.421-18.047-15.542-30.622-15.542c-20.958,0-37.948,16.99-37.948,37.948   s16.99,37.947,37.948,37.947c12.915,0,24.316-6.457,31.171-16.314l111.806,53.083c-1,3.4-1.545,6.995-1.545,10.718   c0,20.957,16.99,37.945,37.949,37.945s37.947-16.988,37.947-37.945C296.185,211.728,279.197,194.737,258.238,194.737z    M258.238,27.122c15.347,0,27.787,12.441,27.787,27.786c0,15.346-12.44,27.789-27.787,27.789   c-15.348,0-27.787-12.443-27.787-27.789C230.451,39.563,242.89,27.122,258.238,27.122z M78.857,175.039   c-15.347,0-27.787-12.441-27.787-27.788c0-15.345,12.44-27.786,27.787-27.786s27.787,12.441,27.787,27.786   C106.644,162.598,94.204,175.039,78.857,175.039z M258.238,260.473c-15.348,0-27.787-12.442-27.787-27.788   s12.439-27.787,27.787-27.787c15.347,0,27.787,12.441,27.787,27.787S273.584,260.473,258.238,260.473z"></path></g><g xmlns="http://www.w3.org/2000/svg" display="none"><g display="inline"><path d="M161.422,139.572c0,0-4.705,5.234,0.529,10.468c5.233,5.233,10.467,0.53,10.467,0.53l-5.499-5.499L161.422,139.572z"></path><path d="M244.576,49.797h-45.032v14.297h37.363l-75.486,75.479l10.996,10.998l75.609-75.604v37.476h14.52V67.768    C262.547,57.843,254.501,49.797,244.576,49.797z"></path><path d="M248.027,214.959c0,4.717-3.682,8.54-8.223,8.54H97.29c-4.541,0-8.223-3.823-8.223-8.54V72.633    c0-4.716,3.682-8.539,8.223-8.539h90.891V49.797H92.518c-9.925,0-17.971,8.046-17.971,17.971v152.059    c0,9.925,8.046,17.971,17.971,17.971h152.059c9.925,0,17.971-8.046,17.971-17.971v-96.02h-14.52V214.959z"></path></g></g><g xmlns="http://www.w3.org/2000/svg" display="none"><g display="inline"><path d="M172.781,249.452h-7.117c-0.865,0-1.565,0.701-1.565,1.565v7.117c0,0.864,0.7,1.565,1.565,1.565h7.117    c0.864,0,1.565-0.701,1.565-1.565v-7.117C174.347,250.153,173.646,249.452,172.781,249.452z"></path><path d="M243.683,21.702H93.411c-6.051,0-10.957,4.905-10.957,10.957v222.275c0,6.052,4.906,10.957,10.957,10.957h150.271    c6.052,0,10.957-4.905,10.957-10.957V32.659C254.64,26.607,249.734,21.702,243.683,21.702z M175.698,259.074    c0,1.092-0.886,1.978-1.979,1.978h-8.994c-1.092,0-1.979-0.886-1.979-1.978v-8.995c0-1.092,0.887-1.979,1.979-1.979h8.994    c1.093,0,1.979,0.887,1.979,1.979V259.074z M242.044,241.946c0,0.865-0.701,1.565-1.565,1.565H95.687    c-0.864,0-1.565-0.7-1.565-1.565V34.542c0-0.864,0.701-1.564,1.565-1.564h144.792c0.864,0,1.565,0.7,1.565,1.564V241.946z"></path><path d="M227.751,139.371c-3.507,0-6.495,2.191-7.689,5.275l-44.62-7.382c0.045-0.503,0.072-1.012,0.072-1.527    c0-1.984-0.341-3.888-0.961-5.661l13.066-6.197c1.296,1.592,3.271,2.61,5.484,2.61c3.907,0,7.073-3.167,7.073-7.073    c0-3.906-3.166-7.072-7.073-7.072c-3.906,0-7.071,3.167-7.071,7.072c0,0.489,0.049,0.967,0.144,1.429l-13.055,6.152    c-2.31-3.896-6.115-6.799-10.626-7.918l4.716-28.958c4.633-0.042,8.376-3.807,8.376-8.448c0-4.668-3.784-8.453-8.452-8.453    c-4.668,0-8.452,3.785-8.452,8.453c0,3.54,2.179,6.568,5.268,7.826l-4.756,29.095c-0.28-0.014-0.563-0.021-0.846-0.021    c-4.305,0-8.237,1.588-11.25,4.207l-5.405-5.401c1.745-2.165,2.794-4.914,2.794-7.911c0-6.971-5.65-12.622-12.622-12.622    c-6.971,0-12.622,5.651-12.622,12.622c0,6.971,5.651,12.622,12.622,12.622c2.762,0,5.308-0.897,7.386-2.402l5.551,5.514    c-2.266,2.91-3.62,6.563-3.62,10.537c0,0.822,0.062,1.628,0.173,2.419l-25.287,6.11c-1.26-2.665-3.966-4.513-7.109-4.513    c-4.346,0-7.868,3.522-7.868,7.868c0,4.346,3.522,7.868,7.868,7.868c4.346,0,7.868-3.522,7.868-7.868    c0-0.106-0.012-0.209-0.016-0.314l25.39-5.732c1.7,4.701,5.395,8.444,10.062,10.214l-8.149,32.23    c-2.693,0.184-4.823,2.421-4.823,5.161c0,2.86,2.318,5.179,5.179,5.179c2.861,0,5.179-2.319,5.179-5.179    c0-1.82-0.941-3.417-2.36-4.341l8.113-32.194c0.958,0.166,1.941,0.257,2.946,0.257c2.958,0,5.742-0.749,8.172-2.066l20.93,28.701    c-0.887,1.177-1.418,2.636-1.418,4.224c0,3.883,3.148,7.032,7.032,7.032s7.032-3.149,7.032-7.032c0-3.884-3.148-7.033-7.032-7.033    c-1.065,0-2.071,0.244-2.976,0.668l-20.749-28.476c2.596-2.166,4.539-5.084,5.5-8.42l44.679,7.473    c0.185,4.392,3.794,7.898,8.232,7.898c4.556,0,8.25-3.693,8.25-8.25S232.307,139.371,227.751,139.371z"></path></g></g><g xmlns="http://www.w3.org/2000/svg" display="none"><g display="inline"><path d="M172.781,249.452h-7.117c-0.865,0-1.565,0.701-1.565,1.565v7.117c0,0.864,0.7,1.565,1.565,1.565h7.117    c0.864,0,1.565-0.701,1.565-1.565v-7.117C174.347,250.153,173.646,249.452,172.781,249.452z"></path><path d="M243.683,21.702H93.411c-6.051,0-10.957,4.905-10.957,10.957v222.275c0,6.052,4.906,10.957,10.957,10.957h150.271    c6.052,0,10.957-4.905,10.957-10.957V32.659C254.64,26.607,249.734,21.702,243.683,21.702z M175.698,259.074    c0,1.092-0.886,1.978-1.979,1.978h-8.994c-1.092,0-1.979-0.886-1.979-1.978v-8.995c0-1.092,0.887-1.979,1.979-1.979h8.994    c1.093,0,1.979,0.887,1.979,1.979V259.074z M242.044,241.946c0,0.865-0.701,1.565-1.565,1.565H95.687    c-0.864,0-1.565-0.7-1.565-1.565V34.542c0-0.864,0.701-1.564,1.565-1.564h144.792c0.864,0,1.565,0.7,1.565,1.564V241.946z"></path><path d="M227.913,139.383c-3.514,0-6.509,2.196-7.706,5.288l-44.72-7.399c0.044-0.505,0.071-1.014,0.071-1.53    c0-1.989-0.341-3.897-0.962-5.675l13.095-6.21c1.299,1.596,3.279,2.617,5.497,2.617c3.915,0,7.088-3.174,7.088-7.089    c0-3.915-3.173-7.088-7.088-7.088c-3.915,0-7.088,3.173-7.088,7.088c0,0.49,0.05,0.969,0.144,1.432l-13.084,6.166    c-2.315-3.905-6.128-6.814-10.65-7.936l4.727-29.022c4.644-0.042,8.396-3.815,8.396-8.468c0-4.678-3.793-8.471-8.472-8.471    c-4.678,0-8.47,3.792-8.47,8.471c0,3.549,2.184,6.583,5.28,7.845l-4.767,29.159c-0.281-0.014-0.564-0.021-0.849-0.021    c-4.314,0-8.255,1.592-11.274,4.216l-5.417-5.413c1.749-2.169,2.8-4.924,2.8-7.928c0-6.987-5.664-12.65-12.65-12.65    c-6.986,0-12.65,5.664-12.65,12.65c0,6.986,5.664,12.651,12.65,12.651c2.768,0,5.32-0.9,7.403-2.408l5.563,5.526    c-2.271,2.915-3.627,6.579-3.627,10.561c0,0.823,0.062,1.632,0.173,2.424l-25.344,6.123c-1.263-2.67-3.973-4.523-7.125-4.523    c-4.355,0-7.886,3.531-7.886,7.886c0,4.355,3.53,7.887,7.886,7.887s7.886-3.531,7.886-7.887c0-0.107-0.012-0.209-0.016-0.315    l25.447-5.745c1.704,4.712,5.407,8.463,10.084,10.237l-8.168,32.303c-2.7,0.185-4.834,2.427-4.834,5.173    c0,2.867,2.324,5.19,5.191,5.19c2.867,0,5.19-2.323,5.19-5.19c0-1.824-0.943-3.425-2.365-4.351l8.132-32.267    c0.959,0.167,1.944,0.258,2.952,0.258c2.965,0,5.756-0.75,8.191-2.072l20.977,28.766c-0.889,1.18-1.422,2.642-1.422,4.232    c0,3.893,3.155,7.049,7.047,7.049s7.048-3.156,7.048-7.049c0-3.892-3.155-7.047-7.048-7.047c-1.067,0-2.076,0.244-2.982,0.669    l-20.795-28.539c2.602-2.171,4.549-5.096,5.513-8.438l44.779,7.488c0.186,4.402,3.803,7.917,8.251,7.917    c4.567,0,8.269-3.702,8.269-8.269C236.182,143.085,232.48,139.383,227.913,139.383z M193.189,114.611    c2.637,0,4.774,2.137,4.774,4.774s-2.138,4.774-4.774,4.774s-4.774-2.138-4.774-4.774S190.552,114.611,193.189,114.611z     M161.456,81.556c0-3.151,2.555-5.706,5.706-5.706c3.151,0,5.706,2.554,5.706,5.706s-2.555,5.706-5.706,5.706    C164.011,87.262,161.456,84.708,161.456,81.556z M137.938,115.328l-0.209,0.209c-1.533,1.481-3.616,2.396-5.915,2.396    c-4.707,0-8.521-3.814-8.521-8.521s3.814-8.521,8.521-8.521c4.706,0,8.52,3.814,8.52,8.521    C140.333,111.712,139.419,113.795,137.938,115.328z M108.856,152.963c-2.933,0-5.312-2.377-5.312-5.311s2.378-5.312,5.312-5.312    c2.934,0,5.312,2.378,5.312,5.312S111.791,152.963,108.856,152.963z M147.942,189.306c0,1.931-1.565,3.496-3.496,3.496    s-3.497-1.565-3.497-3.496c0-1.931,1.565-3.496,3.497-3.496S147.942,187.375,147.942,189.306z M193.148,179.126    c2.622,0,4.748,2.125,4.748,4.747c0,2.623-2.125,4.748-4.748,4.748s-4.747-2.125-4.747-4.748    C188.401,181.251,190.526,179.126,193.148,179.126z M158.355,147.33c-6.399,0-11.587-5.187-11.587-11.587    c0-6.4,5.188-11.588,11.587-11.588c6.4,0,11.588,5.188,11.588,11.588C169.943,142.143,164.755,147.33,158.355,147.33z     M227.913,153.222c-3.077,0-5.569-2.493-5.569-5.569s2.493-5.569,5.569-5.569c3.076,0,5.569,2.493,5.569,5.569    S230.989,153.222,227.913,153.222z"></path></g></g><g xmlns="http://www.w3.org/2000/svg" display="none"><g display="inline"><path d="M172.781,249.452h-7.117c-0.865,0-1.565,0.701-1.565,1.565v7.117c0,0.864,0.7,1.565,1.565,1.565h7.117    c0.864,0,1.565-0.701,1.565-1.565v-7.117C174.347,250.153,173.646,249.452,172.781,249.452z"></path><path d="M243.683,21.702H93.411c-6.051,0-10.957,4.905-10.957,10.957v222.275c0,6.052,4.906,10.957,10.957,10.957h150.271    c6.052,0,10.957-4.905,10.957-10.957V32.659C254.64,26.607,249.734,21.702,243.683,21.702z M175.698,259.074    c0,1.092-0.886,1.978-1.979,1.978h-8.994c-1.092,0-1.979-0.886-1.979-1.978v-8.995c0-1.092,0.887-1.979,1.979-1.979h8.994    c1.093,0,1.979,0.887,1.979,1.979V259.074z M242.044,241.946c0,0.865-0.701,1.565-1.565,1.565H95.687    c-0.864,0-1.565-0.7-1.565-1.565V34.542c0-0.864,0.701-1.564,1.565-1.564h144.792c0.864,0,1.565,0.7,1.565,1.564V241.946z"></path><path d="M126.48,147.71c-0.829-3.363-1.277-6.875-1.277-10.494c0-19.031,12.167-35.211,29.142-41.211    c-0.563-1.604-0.886-3.322-0.886-5.12c0-0.196,0.022-0.387,0.029-0.582c-19.717,6.479-33.96,25.026-33.96,46.912    c0,4.398,0.583,8.658,1.661,12.715C122.773,148.883,124.561,148.118,126.48,147.71z"></path><path d="M195.129,172.187c-7.304,5.485-16.381,8.737-26.219,8.737c-10.047,0-19.296-3.398-26.677-9.097    c-1.126,1.562-2.531,2.906-4.151,3.954c8.45,6.763,19.163,10.817,30.828,10.817c11.52,0,22.109-3.956,30.51-10.568    C197.759,175.026,196.306,173.722,195.129,172.187z"></path><path d="M212.618,137.216c0,3.681-0.462,7.254-1.318,10.67c1.905,0.499,3.665,1.348,5.208,2.481    c1.155-4.189,1.785-8.595,1.785-13.151c0-21.889-14.248-40.439-33.97-46.915c0.008,0.195,0.03,0.387,0.03,0.584    c0,1.796-0.323,3.512-0.886,5.116C200.447,101.999,212.618,118.183,212.618,137.216z"></path><circle cx="168.853" cy="91.037" r="14.03"></circle><circle cx="207.387" cy="162.814" r="14.031"></circle><circle cx="129.707" cy="162.814" r="14.031"></circle></g></g><g xmlns="http://www.w3.org/2000/svg" display="none"><g display="inline"><path d="M172.781,249.452h-7.117c-0.865,0-1.565,0.701-1.565,1.565v7.117c0,0.864,0.7,1.565,1.565,1.565h7.117    c0.864,0,1.565-0.701,1.565-1.565v-7.117C174.347,250.153,173.646,249.452,172.781,249.452z"></path><path d="M243.683,21.702H93.411c-6.051,0-10.957,4.905-10.957,10.957v222.275c0,6.052,4.906,10.957,10.957,10.957h150.271    c6.052,0,10.957-4.905,10.957-10.957V32.659C254.64,26.607,249.734,21.702,243.683,21.702z M175.698,259.074    c0,1.092-0.886,1.978-1.979,1.978h-8.994c-1.092,0-1.979-0.886-1.979-1.978v-8.995c0-1.092,0.887-1.979,1.979-1.979h8.994    c1.093,0,1.979,0.887,1.979,1.979V259.074z M242.044,241.946c0,0.865-0.701,1.565-1.565,1.565H95.687    c-0.864,0-1.565-0.7-1.565-1.565V34.542c0-0.864,0.701-1.564,1.565-1.564h144.792c0.864,0,1.565,0.7,1.565,1.564V241.946z"></path><path d="M168.906,104.768c7.666,0,13.879-6.215,13.879-13.88c0-7.667-6.214-13.88-13.879-13.88c-7.667,0-13.88,6.214-13.88,13.88    C155.026,98.552,161.24,104.768,168.906,104.768z M168.906,81.296c5.297,0,9.591,4.293,9.591,9.591c0,5.297-4.294,9.59-9.591,9.59    c-5.298,0-9.591-4.293-9.591-9.59C159.315,85.59,163.608,81.296,168.906,81.296z"></path><path d="M143.587,162.814c0-7.666-6.214-13.88-13.88-13.88c-7.667,0-13.881,6.214-13.881,13.88c0,7.666,6.214,13.88,13.881,13.88    C137.373,176.694,143.587,170.479,143.587,162.814z M129.708,172.405c-5.298,0-9.591-4.294-9.591-9.591    c0-5.297,4.293-9.591,9.591-9.591c5.297,0,9.59,4.293,9.59,9.591C139.298,168.111,135.004,172.405,129.708,172.405z"></path><path d="M207.386,148.934c-7.666,0-13.879,6.214-13.879,13.88c0,7.666,6.213,13.88,13.879,13.88    c7.667,0,13.881-6.215,13.881-13.88C221.267,155.148,215.053,148.934,207.386,148.934z M207.386,172.405    c-5.296,0-9.59-4.294-9.59-9.591c0-5.297,4.294-9.591,9.59-9.591c5.298,0,9.591,4.293,9.591,9.591    C216.978,168.111,212.684,172.405,207.386,172.405z"></path><path d="M126.481,147.71c-0.829-3.363-1.277-6.875-1.277-10.494c0-19.03,12.166-35.211,29.142-41.211    c-0.563-1.604-0.887-3.322-0.887-5.119c0-0.196,0.022-0.387,0.03-0.581c-19.718,6.479-33.96,25.027-33.96,46.912    c0,4.397,0.583,8.658,1.661,12.716C122.774,148.883,124.561,148.119,126.481,147.71z"></path><path d="M195.13,172.187c-7.304,5.486-16.381,8.737-26.219,8.737c-10.047,0-19.296-3.398-26.677-9.097    c-1.126,1.563-2.531,2.906-4.151,3.953c8.45,6.764,19.163,10.818,30.828,10.818c11.52,0,22.109-3.956,30.51-10.568    C197.759,175.026,196.306,173.723,195.13,172.187z"></path><path d="M212.618,137.216c0,3.682-0.461,7.254-1.317,10.67c1.905,0.499,3.664,1.347,5.208,2.481    c1.155-4.189,1.785-8.596,1.785-13.151c0-21.889-14.247-40.439-33.97-46.915c0.008,0.196,0.03,0.387,0.03,0.584    c0,1.796-0.322,3.512-0.886,5.116C200.447,102,212.618,118.183,212.618,137.216z"></path></g></g><g xmlns="http://www.w3.org/2000/svg" display="none"><g display="inline"><path d="M172.781,249.452h-7.117c-0.865,0-1.565,0.701-1.565,1.565v7.117c0,0.864,0.7,1.565,1.565,1.565h7.117    c0.864,0,1.565-0.701,1.565-1.565v-7.117C174.347,250.153,173.646,249.452,172.781,249.452z"></path><path d="M243.683,21.702H93.411c-6.051,0-10.957,4.905-10.957,10.957v222.275c0,6.052,4.906,10.957,10.957,10.957h150.271    c6.052,0,10.957-4.905,10.957-10.957V32.659C254.64,26.607,249.734,21.702,243.683,21.702z M175.698,259.074    c0,1.092-0.886,1.978-1.979,1.978h-8.994c-1.092,0-1.979-0.886-1.979-1.978v-8.995c0-1.092,0.887-1.979,1.979-1.979h8.994    c1.093,0,1.979,0.887,1.979,1.979V259.074z M242.044,241.946c0,0.865-0.701,1.565-1.565,1.565H95.687    c-0.864,0-1.565-0.7-1.565-1.565V34.542c0-0.864,0.701-1.564,1.565-1.564h144.792c0.864,0,1.565,0.7,1.565,1.564V241.946z"></path><path d="M210.141,96.124c-10.033,0-18.167,8.133-18.167,18.167c0,1.518,0.189,2.991,0.54,4.401l-50.595,21.516    c-3.152-5.104-8.796-8.507-15.235-8.507c-9.884,0-17.896,8.013-17.896,17.897c0,9.884,8.013,17.896,17.896,17.896    c6.553,0,12.28-3.524,15.398-8.778l37.048,14.509c-0.188,0.958-0.289,1.947-0.289,2.959c0,8.441,6.844,15.286,15.285,15.286    c8.442,0,15.286-6.844,15.286-15.286c0-8.442-6.844-15.286-15.286-15.286c-5.496,0-10.313,2.902-13.006,7.257l-36.972-14.658    c0.279-1.256,0.432-2.56,0.432-3.9c0-1.505-0.188-2.966-0.538-4.362l50.656-21.378c3.204,5.161,8.92,8.6,15.442,8.6    c10.032,0,18.166-8.133,18.166-18.167S220.173,96.124,210.141,96.124z"></path></g></g><g xmlns="http://www.w3.org/2000/svg" display="none"><g display="inline"><path d="M172.781,249.452h-7.117c-0.865,0-1.565,0.701-1.565,1.565v7.117c0,0.864,0.7,1.565,1.565,1.565h7.117    c0.864,0,1.565-0.701,1.565-1.565v-7.117C174.347,250.153,173.646,249.452,172.781,249.452z"></path><path d="M243.683,21.702H93.411c-6.051,0-10.957,4.905-10.957,10.957v222.275c0,6.052,4.906,10.957,10.957,10.957h150.271    c6.052,0,10.957-4.905,10.957-10.957V32.659C254.64,26.607,249.734,21.702,243.683,21.702z M175.698,259.074    c0,1.092-0.886,1.978-1.979,1.978h-8.994c-1.092,0-1.979-0.886-1.979-1.978v-8.995c0-1.092,0.887-1.979,1.979-1.979h8.994    c1.093,0,1.979,0.887,1.979,1.979V259.074z M242.044,241.946c0,0.865-0.701,1.565-1.565,1.565H95.687    c-0.864,0-1.565-0.7-1.565-1.565V34.542c0-0.864,0.701-1.564,1.565-1.564h144.792c0.864,0,1.565,0.7,1.565,1.564V241.946z"></path><path d="M210.09,95.641c-10.134,0-18.351,8.216-18.351,18.351c0,1.533,0.19,3.021,0.545,4.445l-51.107,21.735    c-3.185-5.156-8.885-8.593-15.39-8.593c-9.983,0-18.078,8.095-18.078,18.078c0,9.985,8.094,18.078,18.078,18.078    c6.619,0,12.405-3.559,15.555-8.866l37.423,14.656c-0.19,0.967-0.292,1.966-0.292,2.989c0,8.528,6.914,15.44,15.44,15.44    c8.528,0,15.441-6.912,15.441-15.44c0-8.527-6.913-15.44-15.441-15.44c-5.552,0-10.417,2.932-13.138,7.33l-37.346-14.807    c0.282-1.269,0.435-2.585,0.435-3.939c0-1.52-0.189-2.996-0.543-4.407l51.169-21.594c3.237,5.213,9.012,8.686,15.599,8.686    c10.135,0,18.35-8.214,18.35-18.35C228.44,103.857,220.225,95.641,210.09,95.641z M125.788,162.894    c-7.311,0-13.237-5.928-13.237-13.238c0-7.31,5.926-13.237,13.237-13.237c7.311,0,13.238,5.927,13.238,13.237    C139.026,156.966,133.099,162.894,125.788,162.894z M193.914,165.206c6.244,0,11.307,5.063,11.307,11.306    s-5.063,11.306-11.307,11.306c-6.244,0-11.306-5.063-11.306-11.306S187.67,165.206,193.914,165.206z M210.09,127.429    c-7.421,0-13.437-6.017-13.437-13.438c0-7.42,6.016-13.437,13.437-13.437c7.421,0,13.437,6.017,13.437,13.437    C223.527,121.412,217.511,127.429,210.09,127.429z"></path></g></g><g xmlns="http://www.w3.org/2000/svg" display="none"><g display="inline"><path d="M172.781,249.452h-7.117c-0.865,0-1.565,0.701-1.565,1.565v7.117c0,0.864,0.7,1.565,1.565,1.565h7.117    c0.864,0,1.565-0.701,1.565-1.565v-7.117C174.347,250.153,173.646,249.452,172.781,249.452z"></path><path d="M243.683,21.702H93.411c-6.051,0-10.957,4.905-10.957,10.957v222.275c0,6.052,4.906,10.957,10.957,10.957h150.271    c6.052,0,10.957-4.905,10.957-10.957V32.659C254.64,26.607,249.734,21.702,243.683,21.702z M175.698,259.074    c0,1.092-0.886,1.978-1.979,1.978h-8.994c-1.092,0-1.979-0.886-1.979-1.978v-8.995c0-1.092,0.887-1.979,1.979-1.979h8.994    c1.093,0,1.979,0.887,1.979,1.979V259.074z M242.044,241.946c0,0.865-0.701,1.565-1.565,1.565H95.687    c-0.864,0-1.565-0.7-1.565-1.565V34.542c0-0.864,0.701-1.564,1.565-1.564h144.792c0.864,0,1.565,0.7,1.565,1.564V241.946z"></path><path d="M209.907,119.832c9.86,0,17.853-7.994,17.853-17.854s-7.993-17.854-17.853-17.854s-17.853,7.993-17.853,17.854    c0,1.958,0.319,3.84,0.901,5.602l-53.035,27.301c-3.248-4.432-8.49-7.312-14.406-7.312c-9.86,0-17.853,7.993-17.853,17.854    s7.993,17.854,17.853,17.854c6.076,0,11.44-3.039,14.665-7.676l52.601,24.974c-0.47,1.599-0.727,3.29-0.727,5.042    c0,9.86,7.993,17.854,17.853,17.854s17.853-7.993,17.853-17.854c0-9.86-7.993-17.853-17.853-17.853    c-6.123,0-11.523,3.083-14.739,7.78l-52.561-24.959c0.493-1.634,0.761-3.366,0.761-5.161c0-1.93-0.31-3.786-0.876-5.526    l52.973-27.427C198.71,116.929,203.969,119.832,209.907,119.832z"></path></g></g><g xmlns="http://www.w3.org/2000/svg" display="none"><g display="inline"><path d="M172.781,249.452h-7.117c-0.865,0-1.565,0.701-1.565,1.565v7.117c0,0.864,0.7,1.565,1.565,1.565h7.117    c0.864,0,1.565-0.701,1.565-1.565v-7.117C174.347,250.153,173.646,249.452,172.781,249.452z"></path><path d="M243.683,21.702H93.411c-6.051,0-10.957,4.905-10.957,10.957v222.275c0,6.052,4.906,10.957,10.957,10.957h150.271    c6.052,0,10.957-4.905,10.957-10.957V32.659C254.64,26.607,249.734,21.702,243.683,21.702z M175.698,259.074    c0,1.092-0.886,1.978-1.979,1.978h-8.994c-1.092,0-1.979-0.886-1.979-1.978v-8.995c0-1.092,0.887-1.979,1.979-1.979h8.994    c1.093,0,1.979,0.887,1.979,1.979V259.074z M242.044,241.946c0,0.865-0.701,1.565-1.565,1.565H95.687    c-0.864,0-1.565-0.7-1.565-1.565V34.542c0-0.864,0.701-1.564,1.565-1.564h144.792c0.864,0,1.565,0.7,1.565,1.564V241.946z"></path><path d="M209.86,119.842c9.856,0,17.845-7.989,17.845-17.844c0-9.856-7.989-17.845-17.845-17.845    c-9.855,0-17.846,7.989-17.846,17.845c0,1.957,0.319,3.837,0.901,5.599l-53.009,27.289c-3.247-4.43-8.487-7.309-14.4-7.309    c-9.855,0-17.845,7.99-17.845,17.846c0,9.855,7.99,17.844,17.845,17.844c6.073,0,11.435-3.036,14.658-7.671l52.577,24.962    c-0.47,1.599-0.727,3.29-0.727,5.041c0,9.855,7.99,17.843,17.846,17.843c9.856,0,17.845-7.988,17.845-17.843    c0-9.856-7.989-17.846-17.845-17.846c-6.119,0-11.517,3.082-14.732,7.776l-52.537-24.947c0.493-1.634,0.761-3.365,0.761-5.159    c0-1.929-0.31-3.785-0.876-5.524l52.949-27.414C198.668,116.942,203.924,119.842,209.86,119.842z M209.86,88.931    c7.217,0,13.067,5.851,13.067,13.065c0,7.217-5.85,13.068-13.067,13.068c-7.217,0-13.067-5.852-13.067-13.068    C196.793,94.781,202.643,88.931,209.86,88.931z M125.506,158.488c-7.217,0-13.066-5.851-13.066-13.067    c0-7.216,5.849-13.067,13.066-13.067c7.217,0,13.066,5.851,13.066,13.067C138.573,152.637,132.723,158.488,125.506,158.488z     M209.86,172.529c7.217,0,13.067,5.851,13.067,13.068c0,7.216-5.85,13.067-13.067,13.067c-7.217,0-13.067-5.851-13.067-13.067    C196.793,178.38,202.643,172.529,209.86,172.529z"></path></g></g><g xmlns="http://www.w3.org/2000/svg" display="none"><g display="inline"><path d="M172.781,249.452h-7.117c-0.865,0-1.565,0.701-1.565,1.565v7.117c0,0.864,0.7,1.565,1.565,1.565h7.117    c0.864,0,1.565-0.701,1.565-1.565v-7.117C174.347,250.153,173.646,249.452,172.781,249.452z"></path><path d="M243.683,21.702H93.411c-6.051,0-10.957,4.905-10.957,10.957v222.275c0,6.052,4.906,10.957,10.957,10.957h150.271    c6.052,0,10.957-4.905,10.957-10.957V32.659C254.64,26.607,249.734,21.702,243.683,21.702z M175.698,259.074    c0,1.092-0.886,1.978-1.979,1.978h-8.994c-1.092,0-1.979-0.886-1.979-1.978v-8.995c0-1.092,0.887-1.979,1.979-1.979h8.994    c1.093,0,1.979,0.887,1.979,1.979V259.074z M242.044,241.946c0,0.865-0.701,1.565-1.565,1.565H95.687    c-0.864,0-1.565-0.7-1.565-1.565V34.542c0-0.864,0.701-1.564,1.565-1.564h144.792c0.864,0,1.565,0.7,1.565,1.564V241.946z"></path><path d="M164.227,141.234c0,0-2.853,3.175,0.321,6.349c3.173,3.173,6.347,0.321,6.347,0.321l-3.334-3.335L164.227,141.234z"></path><path d="M214.65,86.797h-27.307v8.669H210l-45.773,45.769l6.667,6.67l45.848-45.845v22.725h8.805v-27.09    C225.547,91.676,220.668,86.797,214.65,86.797z"></path><path d="M216.742,186.948c0,2.86-2.232,5.179-4.986,5.179h-86.419c-2.753,0-4.986-2.318-4.986-5.179v-86.305    c0-2.859,2.232-5.178,4.986-5.178h55.115v-8.669h-58.009c-6.018,0-10.897,4.879-10.897,10.897v92.205    c0,6.019,4.879,10.897,10.897,10.897h92.206c6.018,0,10.897-4.879,10.897-10.897v-58.225h-8.805V186.948z"></path></g></g><g xmlns="http://www.w3.org/2000/svg" display="none"><path display="inline" d="M253.272,127.123c-8.348,0-15.241,6.141-16.461,14.147h-47.209c-0.471-3.965-2.035-7.588-4.383-10.573   l33.384-33.384c6.524,4.796,15.74,4.264,21.642-1.638c6.511-6.512,6.511-17.068,0-23.58c-6.512-6.511-17.067-6.511-23.579,0   c-5.903,5.903-6.435,15.12-1.637,21.644l-33.384,33.384c-2.984-2.348-6.607-3.912-10.573-4.382V75.533   c8.007-1.221,14.146-8.115,14.146-16.461c0-9.208-7.464-16.673-16.673-16.673c-9.209,0-16.673,7.464-16.673,16.673   c0,8.347,6.14,15.241,14.146,16.461v47.209c-3.966,0.47-7.589,2.035-10.573,4.382L122.063,93.74   c4.798-6.524,4.265-15.74-1.637-21.642c-6.511-6.511-17.067-6.511-23.579,0s-6.511,17.067,0,23.579   c5.902,5.902,15.12,6.436,21.643,1.637l33.384,33.384c-2.349,2.984-3.912,6.608-4.383,10.573h-47.209   c-1.22-8.007-8.114-14.147-16.461-14.147c-9.209,0-16.673,7.464-16.673,16.673c0,9.208,7.464,16.672,16.673,16.672   c8.347,0,15.241-6.14,16.461-14.146h47.209c0.47,3.965,2.035,7.588,4.382,10.573L118.49,190.28   c-6.524-4.799-15.74-4.267-21.644,1.637c-6.512,6.512-6.511,17.068,0,23.579s17.067,6.511,23.579,0   c5.902-5.902,6.435-15.119,1.638-21.643l33.384-33.384c2.984,2.348,6.607,3.913,10.573,4.383v47.208   c-8.006,1.221-14.146,8.115-14.146,16.461c0,9.208,7.464,16.673,16.673,16.673c9.208,0,16.673-7.464,16.673-16.673   c0-8.347-6.14-15.241-14.146-16.461v-47.208c3.965-0.471,7.589-2.035,10.573-4.383l33.384,33.384   c-4.798,6.524-4.265,15.74,1.637,21.642c6.511,6.511,17.066,6.512,23.579,0c6.511-6.51,6.511-17.067,0-23.579   c-5.903-5.902-15.12-6.435-21.643-1.637l-33.384-33.384c2.348-2.985,3.913-6.608,4.383-10.573h47.209   c1.221,8.005,8.114,14.145,16.461,14.145c9.208,0,16.673-7.464,16.673-16.672C269.945,134.587,262.481,127.123,253.272,127.123z"></path></g><g xmlns="http://www.w3.org/2000/svg" display="none"><path display="inline" d="M253.228,126.801c-8.369,0-15.282,6.158-16.505,14.186l-47.332-0.001   c-0.473-3.975-2.041-7.609-4.395-10.6l33.472-33.47c2.769,2.036,6.178,3.253,9.879,3.253c9.232,0,16.717-7.484,16.717-16.717   s-7.485-16.717-16.717-16.717S211.63,74.22,211.63,83.452c0,3.702,1.218,7.111,3.255,9.88l-33.471,33.47   c-2.992-2.353-6.625-3.922-10.6-4.395V75.076c8.027-1.225,14.183-8.136,14.183-16.505c0-9.232-7.484-16.717-16.717-16.717   c-9.232,0-16.717,7.485-16.717,16.717c0,8.369,6.156,15.28,14.184,16.505v47.333c-3.976,0.473-7.608,2.042-10.601,4.395   l-33.47-33.47c2.036-2.77,3.253-6.179,3.253-9.88c0-9.232-7.485-16.717-16.717-16.717c-9.232,0-16.717,7.484-16.717,16.717   s7.485,16.717,16.717,16.717c3.702,0,7.111-1.217,9.88-3.255l33.471,33.472c-2.353,2.992-3.922,6.625-4.394,10.601l-47.333-0.001   c-1.224-8.027-8.136-14.185-16.505-14.185c-9.233,0-16.717,7.485-16.717,16.718c0,9.231,7.484,16.717,16.717,16.717   c8.368,0,15.28-6.156,16.505-14.183l47.333,0.001c0.472,3.975,2.041,7.609,4.395,10.601l-33.471,33.469   c-2.769-2.036-6.179-3.253-9.88-3.253c-9.232,0-16.717,7.484-16.717,16.717s7.485,16.717,16.717,16.717   c9.232,0,16.717-7.484,16.717-16.717c0-3.701-1.218-7.11-3.253-9.88l33.471-33.47c2.992,2.354,6.624,3.924,10.6,4.395v47.333   c-8.028,1.224-14.184,8.136-14.184,16.504c0,9.232,7.485,16.717,16.717,16.717c9.233,0,16.717-7.485,16.717-16.717   c0-8.369-6.156-15.28-14.183-16.504v-47.333c3.976-0.471,7.608-2.041,10.601-4.395l33.471,33.471   c-2.037,2.77-3.255,6.179-3.255,9.881c0,9.231,7.485,16.716,16.717,16.716s16.717-7.484,16.717-16.716   c0-9.233-7.485-16.718-16.717-16.718c-3.701,0-7.111,1.217-9.879,3.254l-33.471-33.471c2.354-2.993,3.923-6.626,4.394-10.602   l47.333,0.001c1.225,8.027,8.136,14.182,16.504,14.182c9.233,0,16.717-7.485,16.717-16.717   C269.945,134.286,262.461,126.801,253.228,126.801z M228.347,71.211c6.761,0,12.242,5.48,12.242,12.241s-5.48,12.241-12.242,12.241   s-12.241-5.48-12.241-12.241S221.586,71.211,228.347,71.211z M156.039,58.571c0-6.761,5.48-12.242,12.241-12.242   c6.762,0,12.242,5.481,12.242,12.242s-5.48,12.241-12.242,12.241C161.519,70.812,156.039,65.332,156.039,58.571z M95.972,83.452   c0-6.761,5.479-12.241,12.241-12.241s12.242,5.48,12.242,12.241s-5.48,12.241-12.242,12.241S95.972,90.213,95.972,83.452z    M83.332,155.76c-6.762,0-12.241-5.48-12.241-12.241c0-6.761,5.479-12.242,12.241-12.242c6.761,0,12.242,5.48,12.242,12.242   C95.574,150.279,90.093,155.76,83.332,155.76z M108.213,215.828c-6.761,0-12.241-5.48-12.241-12.241s5.479-12.241,12.241-12.241   s12.242,5.48,12.242,12.241S114.974,215.828,108.213,215.828z M152.226,143.52c0-8.869,7.188-16.055,16.054-16.055   c8.867,0,16.054,7.186,16.054,16.055c0,8.865-7.188,16.055-16.054,16.055C159.414,159.574,152.226,152.385,152.226,143.52z    M180.522,228.468c0,6.761-5.48,12.242-12.242,12.242c-6.761,0-12.241-5.481-12.241-12.242s5.48-12.241,12.241-12.241   C175.042,216.227,180.522,221.707,180.522,228.468z M240.589,203.588c0,6.76-5.48,12.241-12.242,12.241   s-12.241-5.481-12.241-12.241c0-6.762,5.479-12.242,12.241-12.242S240.589,196.826,240.589,203.588z M253.228,155.76   c-6.761,0-12.24-5.48-12.24-12.241c0-6.761,5.479-12.242,12.24-12.242c6.762,0,12.243,5.48,12.243,12.242   C265.471,150.279,259.99,155.76,253.228,155.76z"></path></g><g xmlns="http://www.w3.org/2000/svg" display="none"><path display="inline" d="M263.417,165.291c-0.412-8.09-7.304-14.314-15.394-13.902c-5.812,0.297-10.645,3.945-12.762,8.97   l-21.847-3.242c0.122-1.296,0.191-2.609,0.191-3.938c0-22.92-18.58-41.5-41.5-41.5c-7.861,0-15.211,2.187-21.477,5.984   l-20.093-37.394c2.827-2.151,5.036-5.168,6.138-8.83c2.776-9.223-2.451-18.95-11.674-21.726   c-9.223-2.775-18.95,2.451-21.726,11.674c-2.776,9.223,2.451,18.95,11.673,21.725c3.65,1.099,7.373,0.927,10.718-0.232   l20.411,37.985c-8.114,6.545-13.706,16.08-15.112,26.933l-27.425-1.412c-0.781-7.541-7.153-13.421-14.899-13.421   c-8.274,0-14.982,6.708-14.982,14.981c0,8.274,6.708,14.982,14.982,14.982c6.905,0,12.703-4.678,14.438-11.033l27.532,1.417   c0.043,13.554,6.581,25.58,16.668,33.123l-20.653,20.645c-2.874-2.088-6.399-3.333-10.223-3.334   c-9.632-0.002-17.441,7.805-17.443,17.437s7.805,17.441,17.437,17.443c9.632,0.002,17.441-7.805,17.443-17.436   c0.001-3.812-1.235-7.327-3.31-10.197l21.5-21.492c5.951,3.296,12.793,5.179,20.077,5.179c19.731,0,36.235-13.775,40.448-32.23   l21.568,3.201c-0.01,0.375-0.019,0.751,0,1.133c0.412,8.09,7.304,14.314,15.395,13.902   C257.605,180.272,263.829,173.38,263.417,165.291z"></path></g><g xmlns="http://www.w3.org/2000/svg"><path d="M262.1,163.849c-0.412-8.09-7.304-14.314-15.394-13.902c-6.169,0.315-11.243,4.402-13.126,9.911l-22.317-3.312   c0.039-0.736,0.061-1.476,0.061-2.221c0-22.92-18.58-41.5-41.5-41.5c-6.539,0-12.721,1.517-18.223,4.21l-20.082-37.374   c2.842-2.153,5.063-5.178,6.168-8.853c2.776-9.223-2.451-18.95-11.674-21.726c-9.223-2.775-18.95,2.451-21.726,11.674   c-2.776,9.223,2.451,18.95,11.673,21.725c3.637,1.095,7.346,0.929,10.682-0.219l20.166,37.529   c-9.361,6.251-16.032,16.207-17.928,27.771l-23.998-1.236c-0.564-7.759-7.022-13.882-14.925-13.882   c-8.274,0-14.982,6.708-14.982,14.981c0,8.274,6.708,14.982,14.982,14.982c6.741,0,12.44-4.454,14.321-10.579l24.077,1.239   c-0.012,0.418-0.032,0.834-0.032,1.256c0,14.214,7.149,26.753,18.044,34.233l-19.076,19.068c-2.854-2.038-6.337-3.25-10.111-3.251   c-9.632-0.002-17.441,7.805-17.443,17.437s7.805,17.441,17.437,17.443c9.632,0.002,17.441-7.805,17.443-17.437   c0.001-3.862-1.269-7.419-3.393-10.309l20.063-20.056c5.58,2.792,11.872,4.371,18.536,4.371c20.328,0,37.23-14.619,40.796-33.915   l22.185,3.292c0.002,0.046-0.002,0.092,0,0.138c0.412,8.09,7.304,14.314,15.395,13.902   C256.288,178.831,262.511,171.938,262.1,163.849z M118.514,73.997c-4.537-1.365-7.107-6.15-5.742-10.686   c1.365-4.537,6.149-7.108,10.686-5.743s7.107,6.15,5.742,10.687S123.051,75.362,118.514,73.997z M89.957,156.158   c-4.823,0-8.732-3.91-8.732-8.732s3.909-8.731,8.732-8.731c4.822,0,8.731,3.909,8.731,8.731S94.779,156.158,89.957,156.158z    M117.175,230.641c-4.874-0.001-8.825-3.954-8.824-8.827c0-4.875,3.953-8.826,8.827-8.825c2.292,0.001,4.374,0.883,5.942,2.316   l0.568,0.568c1.433,1.569,2.313,3.651,2.313,5.944C126.002,226.691,122.049,230.642,117.175,230.641z M169.823,180.008   c-14.186,0-25.685-11.499-25.685-25.684c0-14.186,11.499-25.685,25.685-25.685c14.185,0,25.684,11.499,25.684,25.685   C195.506,168.509,184.007,180.008,169.823,180.008z M247.817,171.769c-3.963,0.202-7.339-2.847-7.541-6.81   c-0.202-3.962,2.847-7.338,6.809-7.54c3.963-0.202,7.339,2.847,7.541,6.81C254.828,168.191,251.78,171.567,247.817,171.769z"></path></g></g></svg>
