<svg width="674" height="786" viewBox="0 0 674 786" fill="none" xmlns="http://www.w3.org/2000/svg">
<path d="M505.384 300.38V494.443L674 397.412V202.885L505.384 300.38Z" fill="#218939"/>
<path d="M336.768 397.411L168.616 494.442L336.768 591.938L505.384 494.442L336.768 397.411Z" fill="#7AAEF9"/>
<path d="M336.768 202.885V397.412L505.384 494.443V300.38L336.768 202.885Z" fill="#35A753"/>
<path d="M505.384 105.851L336.768 202.882L505.384 300.378L674 202.882L505.384 105.851Z" fill="#69BC7D"/>
<path d="M336.768 8.8208L168.616 105.852L336.768 202.883L505.384 105.852L336.768 8.8208Z" fill="#F4645D"/>
<path d="M168.616 105.851L0 202.882L168.616 300.378L336.768 202.882L168.616 105.851Z" fill="#FCCF5E"/>
<path d="M168.616 300.38V494.443L336.768 397.412V202.885L168.616 300.38Z" fill="#E0A205"/>
<path d="M0 202.885V397.412L168.616 494.443V300.38L0 202.885Z" fill="#FCBB05"/>
<path d="M168.616 494.441V688.968L336.768 786V591.937L168.616 494.441Z" fill="#4285F4"/>
<path d="M336.768 591.937V786L505.384 688.968V494.441L336.768 591.937Z" fill="#296ED3"/>
<path d="M0 397.411V591.938L168.616 688.969V494.442L0 397.411Z" fill="#EB4336"/>
<path d="M674 397.411L505.384 494.442V688.969L674 591.938V397.411Z" fill="#E0A205"/>
</svg>
