<svg height="32" width="32" xmlns="http://www.w3.org/2000/svg"><path d="M16 32C7.163 32 0 24.837 0 16S7.163 0 16 0s16 7.163 16 16-7.163 16-16 16zm6.5-12.846c0-2.523-1.576-3.948-5.263-4.836v-4.44c1.14.234 2.231.725 3.298 1.496l1.359-2.196a9.49 9.49 0 0 0-4.56-1.776V6h-2.11v1.355c-3.032.234-5.093 1.963-5.093 4.486 0 2.64 1.649 3.925 5.19 4.813v4.58c-1.577-.234-2.886-.935-4.269-2.01L9.5 21.35a11.495 11.495 0 0 0 5.724 2.314V26h2.11v-2.313c3.08-.257 5.166-1.963 5.166-4.533zm-7.18-5.327c-1.867-.537-2.327-1.168-2.327-2.15 0-1.027.8-1.845 2.328-1.962zm4.318 5.49c0 1.122-.873 1.893-2.401 2.01v-4.229c1.892.538 2.401 1.168 2.401 2.22z" fill-rule="evenodd"/></svg>